<svg width="178" height="110" viewBox="0 0 178 110" fill="none" xmlns="http://www.w3.org/2000/svg">
<path d="M91.2023 55.26C91.2023 65.82 89.2223 75.24 85.2623 83.52C81.3023 91.68 75.9023 98.1 69.0623 102.78C62.2223 107.46 54.4223 109.8 45.6623 109.8C36.9023 109.8 29.1023 107.46 22.2623 102.78C15.4223 98.1 10.0223 91.68 6.06234 83.52C2.10234 75.24 0.122344 65.82 0.122344 55.26C0.122344 44.7 2.10234 35.34 6.06234 27.18C10.0223 18.9 15.4223 12.42 22.2623 7.73999C29.1023 2.94 36.9023 0.539999 45.6623 0.539999C54.4223 0.539999 62.2223 2.94 69.0623 7.73999C75.9023 12.42 81.3023 18.9 85.2623 27.18C89.2223 35.34 91.2023 44.7 91.2023 55.26ZM75.1823 55.26C75.1823 47.34 73.9223 40.38 71.4023 34.38C68.8823 28.38 65.4023 23.7 60.9623 20.34C56.5223 16.98 51.4223 15.3 45.6623 15.3C39.7823 15.3 34.6223 16.98 30.1823 20.34C25.7423 23.7 22.2623 28.38 19.7423 34.38C17.2223 40.38 15.9623 47.34 15.9623 55.26C15.9623 63.18 17.2223 70.14 19.7423 76.14C22.2623 82.02 25.7423 86.64 30.1823 90C34.6223 93.36 39.7823 95.04 45.6623 95.04C51.4223 95.04 56.5223 93.36 60.9623 90C65.4023 86.64 68.8823 82.02 71.4023 76.14C73.9223 70.14 75.1823 63.18 75.1823 55.26ZM177.649 93.6V108H113.029V93.6H138.589V23.4C137.269 25.2 134.869 27.24 131.389 29.52C127.909 31.68 124.129 33.54 120.049 35.1C115.969 36.66 112.369 37.44 109.249 37.44V22.32C111.889 22.32 114.769 21.6 117.889 20.16C121.129 18.6 124.249 16.8 127.249 14.76C130.249 12.72 132.769 10.8 134.809 9C136.969 7.2 138.229 5.94 138.589 5.21999H154.789V93.6H177.649Z" fill="#55A630" fill-opacity="0.25"/>
</svg>
