<svg width="189" height="110" viewBox="0 0 189 110" fill="none" xmlns="http://www.w3.org/2000/svg">
<path d="M91.2023 55.26C91.2023 65.82 89.2223 75.24 85.2623 83.52C81.3023 91.68 75.9023 98.1 69.0623 102.78C62.2223 107.46 54.4223 109.8 45.6623 109.8C36.9023 109.8 29.1023 107.46 22.2623 102.78C15.4223 98.1 10.0223 91.68 6.06234 83.52C2.10234 75.24 0.122344 65.82 0.122344 55.26C0.122344 44.7 2.10234 35.34 6.06234 27.18C10.0223 18.9 15.4223 12.42 22.2623 7.73999C29.1023 2.94 36.9023 0.539999 45.6623 0.539999C54.4223 0.539999 62.2223 2.94 69.0623 7.73999C75.9023 12.42 81.3023 18.9 85.2623 27.18C89.2223 35.34 91.2023 44.7 91.2023 55.26ZM75.1823 55.26C75.1823 47.34 73.9223 40.38 71.4023 34.38C68.8823 28.38 65.4023 23.7 60.9623 20.34C56.5223 16.98 51.4223 15.3 45.6623 15.3C39.7823 15.3 34.6223 16.98 30.1823 20.34C25.7423 23.7 22.2623 28.38 19.7423 34.38C17.2223 40.38 15.9623 47.34 15.9623 55.26C15.9623 63.18 17.2223 70.14 19.7423 76.14C22.2623 82.02 25.7423 86.64 30.1823 90C34.6223 93.36 39.7823 95.04 45.6623 95.04C51.4223 95.04 56.5223 93.36 60.9623 90C65.4023 86.64 68.8823 82.02 71.4023 76.14C73.9223 70.14 75.1823 63.18 75.1823 55.26ZM108.709 108C108.709 101.52 109.429 95.64 110.869 90.36C112.429 84.96 115.309 79.86 119.509 75.06C123.829 70.26 130.009 65.58 138.049 61.02C142.849 58.38 147.649 55.86 152.449 53.46C157.369 50.94 161.449 48.18 164.689 45.18C168.049 42.06 169.729 38.4 169.729 34.2C169.729 30 167.869 26.16 164.149 22.68C160.549 19.2 155.269 17.46 148.309 17.46C143.629 17.46 139.429 18.3 135.709 19.98C131.989 21.54 128.809 23.46 126.169 25.74C123.649 27.9 121.609 29.88 120.049 31.68L110.149 20.52C111.469 19.08 113.929 17.04 117.529 14.4C121.129 11.64 125.749 9.11999 131.389 6.83999C137.029 4.55999 143.569 3.41999 151.009 3.41999C158.449 3.41999 164.809 4.74 170.089 7.38C175.489 9.89999 179.629 13.38 182.509 17.82C185.389 22.14 186.829 27 186.829 32.4C186.829 37.08 185.809 41.16 183.769 44.64C181.849 48.12 179.329 51.18 176.209 53.82C173.209 56.46 170.029 58.74 166.669 60.66C163.429 62.46 160.489 64.02 157.849 65.34C150.649 68.94 144.829 72.12 140.389 74.88C135.949 77.52 132.589 80.28 130.309 83.16C128.029 86.04 126.349 89.52 125.269 93.6H188.809V108H108.709Z" fill="white" fill-opacity="0.3"/>
</svg>
