<svg width="191" height="135" viewBox="0 0 191 135" fill="none" xmlns="http://www.w3.org/2000/svg">
<path d="M91.2302 55.26C91.2302 65.82 89.2502 75.24 85.2902 83.52C81.3302 91.68 75.9302 98.1 69.0902 102.78C62.2502 107.46 54.4502 109.8 45.6902 109.8C36.9302 109.8 29.1302 107.46 22.2902 102.78C15.4502 98.1 10.0502 91.68 6.09018 83.52C2.13018 75.24 0.150176 65.82 0.150176 55.26C0.150176 44.7 2.13018 35.34 6.09018 27.18C10.0502 18.9 15.4502 12.42 22.2902 7.73999C29.1302 2.94 36.9302 0.539999 45.6902 0.539999C54.4502 0.539999 62.2502 2.94 69.0902 7.73999C75.9302 12.42 81.3302 18.9 85.2902 27.18C89.2502 35.34 91.2302 44.7 91.2302 55.26ZM75.2102 55.26C75.2102 47.34 73.9502 40.38 71.4302 34.38C68.9102 28.38 65.4302 23.7 60.9902 20.34C56.5502 16.98 51.4502 15.3 45.6902 15.3C39.8102 15.3 34.6502 16.98 30.2102 20.34C25.7702 23.7 22.2902 28.38 19.7702 34.38C17.2502 40.38 15.9902 47.34 15.9902 55.26C15.9902 63.18 17.2502 70.14 19.7702 76.14C22.2902 82.02 25.7702 86.64 30.2102 90C34.6502 93.36 39.8102 95.04 45.6902 95.04C51.4502 95.04 56.5502 93.36 60.9902 90C65.4302 86.64 68.9102 82.02 71.4302 76.14C73.9502 70.14 75.2102 63.18 75.2102 55.26ZM165.437 65.52C173.117 66.84 179.177 70.38 183.617 76.14C188.177 81.9 190.457 89.04 190.457 97.56C190.457 104.88 188.657 111.3 185.057 116.82C181.577 122.46 176.597 126.78 170.117 129.78C163.637 132.9 156.077 134.46 147.437 134.46C138.317 134.46 130.277 132.72 123.317 129.24C116.477 125.88 111.137 121.08 107.297 114.84L117.917 104.22C120.677 109.02 124.397 112.86 129.077 115.74C133.877 118.62 139.997 120.06 147.437 120.06C155.717 120.06 162.197 118.14 166.877 114.3C171.677 110.58 174.077 105 174.077 97.56C174.077 90 171.497 84 166.337 79.56C161.297 75 153.917 72.72 144.197 72.72H139.517V59.4H144.557C153.197 59.4 159.797 57.3 164.357 53.1C169.037 48.9 171.377 43.68 171.377 37.44C171.377 31.08 169.157 26.34 164.717 23.22C160.277 20.1 154.697 18.54 147.977 18.54C141.377 18.54 135.557 19.98 130.517 22.86C125.597 25.62 121.757 29.52 118.997 34.56L109.277 24.48C112.397 18.48 117.617 13.62 124.937 9.9C132.377 6.17999 140.597 4.31999 149.597 4.31999C157.157 4.31999 163.817 5.63999 169.577 8.28C175.457 10.92 180.017 14.64 183.257 19.44C186.497 24.24 188.117 29.88 188.117 36.36C188.117 43.44 186.077 49.8 181.997 55.44C178.037 60.96 172.517 64.32 165.437 65.52Z" fill="#55A630" fill-opacity="0.25"/>
</svg>
