<svg width="32" height="33" viewBox="0 0 32 33" fill="none" xmlns="http://www.w3.org/2000/svg">
<path d="M28.4444 0H3.55556C1.59111 0 0 1.64083 0 3.66667V29.3333C0 31.3592 1.59111 33 3.55556 33H17.104V20.2382H12.9387V15.2423H17.104V11.5665C17.104 7.30583 19.6302 4.983 23.3173 4.983C24.56 4.97933 25.8009 5.04533 27.0364 5.1755V9.6305H24.4978C22.4889 9.6305 22.0978 10.6095 22.0978 12.0542V15.235H26.8978L26.2738 20.2308H22.0693V33H28.4444C30.4089 33 32 31.3592 32 29.3333V3.66667C32 1.64083 30.4089 0 28.4444 0Z" fill="white"/>
</svg>
