<svg width="32" height="33" viewBox="0 0 32 33" fill="none" xmlns="http://www.w3.org/2000/svg">
<path d="M8.88889 0C3.98044 0 0 4.10483 0 9.16667V23.8333C0 28.8952 3.98044 33 8.88889 33H23.1111C28.0196 33 32 28.8952 32 23.8333V9.16667C32 4.10483 28.0196 0 23.1111 0H8.88889ZM26.6667 3.66667C27.648 3.66667 28.4444 4.488 28.4444 5.5C28.4444 6.512 27.648 7.33333 26.6667 7.33333C25.6853 7.33333 24.8889 6.512 24.8889 5.5C24.8889 4.488 25.6853 3.66667 26.6667 3.66667ZM16 7.33333C20.9084 7.33333 24.8889 11.4382 24.8889 16.5C24.8889 21.5618 20.9084 25.6667 16 25.6667C11.0916 25.6667 7.11111 21.5618 7.11111 16.5C7.11111 11.4382 11.0916 7.33333 16 7.33333ZM16 11C14.5855 11 13.229 11.5795 12.2288 12.6109C11.2286 13.6424 10.6667 15.0413 10.6667 16.5C10.6667 17.9587 11.2286 19.3576 12.2288 20.3891C13.229 21.4205 14.5855 22 16 22C17.4145 22 18.771 21.4205 19.7712 20.3891C20.7714 19.3576 21.3333 17.9587 21.3333 16.5C21.3333 15.0413 20.7714 13.6424 19.7712 12.6109C18.771 11.5795 17.4145 11 16 11Z" fill="white"/>
</svg>
