<svg width="211" height="219" viewBox="0 0 211 219" fill="none" xmlns="http://www.w3.org/2000/svg">
<path d="M210.457 109.017C210.457 87.4556 204.285 66.3782 192.723 48.4504C181.16 30.5228 164.726 16.5497 145.498 8.29846C126.27 0.0472355 105.112 -2.11166 84.6993 2.09478C64.2871 6.30124 45.5371 16.6841 30.8207 31.9305C16.1043 47.1768 6.08224 66.6017 2.02198 87.749C-2.03828 108.896 0.0455937 130.816 8.01009 150.736C15.9746 170.656 29.4619 187.682 46.7666 199.661C64.0715 211.64 84.4163 218.034 105.228 218.034C119.048 218.036 132.732 215.217 145.499 209.739C158.267 204.261 169.868 196.23 179.639 186.107C189.411 175.983 197.162 163.965 202.45 150.738C207.737 137.511 210.458 123.334 210.457 109.017Z" fill="#B7ECB1"/>
</svg>
